<svg xmlns="http://www.w3.org/2000/svg" width="380pt" height="76">
    <path fill="#073C77" fill-rule="evenodd" d="M375.652 36.002v-20.44h3.612v20.44h-3.612zm-7.36-1.652c-1.008 1.26-2.52 2.044-4.564 2.044-3.724 0-6.804-3.22-6.804-7.392 0-4.172 3.08-7.392 6.804-7.392 2.044 0 3.556.784 4.564 2.044v-1.652h3.612v14h-3.612V34.35zm-3.892-9.296c-2.212 0-3.864 1.596-3.864 3.948s1.652 3.948 3.864 3.948c2.24 0 3.892-1.596 3.892-3.948s-1.652-3.948-3.892-3.948zm-15.516 6.244v-5.824h-2.436v-3.472h2.436v-2.828l3.612-1.092v3.92h3.164v3.472h-3.164v5.824c0 1.512 1.092 1.54 3.164 1.428v3.276c-5.068.56-6.776-.924-6.776-4.704zm-6.44-10.976a2.235 2.235 0 0 1-2.212-2.212c0-1.204 1.008-2.24 2.212-2.24 1.232 0 2.24 1.036 2.24 2.24 0 1.204-1.008 2.212-2.24 2.212zM330.8 36.394c-2.044 0-3.528-.756-4.536-2.044v7.252h-3.612v-19.6h3.612v1.652c1.008-1.288 2.492-2.044 4.536-2.044 3.752 0 6.832 3.22 6.832 7.392 0 4.172-3.08 7.392-6.832 7.392zm-.672-11.34c-2.212 0-3.864 1.596-3.864 3.948s1.652 3.948 3.864 3.948c2.24 0 3.892-1.596 3.892-3.948s-1.652-3.948-3.892-3.948zm-14.836 9.296c-1.008 1.26-2.52 2.044-4.564 2.044-3.724 0-6.804-3.22-6.804-7.392 0-4.172 3.08-7.392 6.804-7.392 2.044 0 3.556.784 4.564 2.044v-1.652h3.612v14h-3.612V34.35zm-3.892-9.296c-2.212 0-3.864 1.596-3.864 3.948s1.652 3.948 3.864 3.948c2.24 0 3.892-1.596 3.892-3.948s-1.652-3.948-3.892-3.948zm-15.112 7.756c1.456 0 2.66-.7 3.22-1.848l3.136 1.792c-1.204 2.184-3.584 3.64-6.328 3.64-4.256 0-7.392-3.22-7.392-7.392 0-4.172 3.136-7.392 7.392-7.392 2.744 0 5.124 1.456 6.272 3.612l-3.108 1.82c-.56-1.148-1.764-1.876-3.192-1.876-2.156 0-3.752 1.596-3.752 3.836 0 2.212 1.596 3.808 3.752 3.808zm-43.869 24.032c-6.419 0-11.58-2.461-14.219-7.32l6.6-3.78c1.26 2.34 3.239 4.2 7.859 4.2 4.86 0 7.86-2.64 7.86-7.38v-3.24c-2.1 2.82-5.34 4.56-9.599 4.56-8.52 0-14.94-6.9-14.94-15.359 0-8.4 6.42-15.36 14.94-15.36 4.259 0 7.499 1.74 9.599 4.56v-3.72h7.56v28.559c0 9.84-7.74 14.28-15.66 14.28zm-.3-36.479c-4.859 0-8.399 3.42-8.399 8.16 0 4.8 3.54 8.219 8.399 8.219 4.86 0 8.4-3.419 8.4-8.219 0-4.74-3.54-8.16-8.4-8.16zm-26.839 9.3v14.339h-7.74V14.003h7.74v5.16c1.56-4.08 5.339-5.76 9.119-5.76v8.64c-4.02-.48-9.119 1.32-9.119 7.62zm-36.201 2.52c1.08 3.959 4.38 5.639 8.46 5.639 3 0 5.4-1.26 6.72-3l6.239 3.6c-2.819 4.08-7.319 6.42-13.079 6.42-10.08 0-16.439-6.9-16.439-15.839 0-8.94 6.42-15.84 15.839-15.84 8.88 0 15.18 7.02 15.18 15.84 0 1.139-.121 2.16-.301 3.18h-22.619zm7.74-12.06c-4.139 0-6.959 2.22-7.859 6.06h15.299c-.96-4.32-4.2-6.06-7.44-6.06zm-34.82 24.719c-4.379 0-7.559-1.62-9.72-4.38v3.54h-7.739V2.004h7.739v15.539c2.161-2.76 5.341-4.38 9.72-4.38 8.04 0 14.639 6.9 14.639 15.84 0 8.939-6.599 15.839-14.639 15.839zm-1.44-24.299c-4.74 0-8.28 3.42-8.28 8.46 0 5.039 3.54 8.459 8.28 8.459 4.8 0 8.34-3.42 8.34-8.459 0-5.04-3.54-8.46-8.34-8.46zm-30.74 6c0-4.08-2.46-6.18-5.94-6.18-3.78 0-6.6 2.22-6.6 7.44v16.199h-7.739V14.003h7.739v3.36c1.801-2.7 4.92-4.2 8.94-4.2 6.36 0 11.34 4.44 11.34 12.42v18.419h-7.74V26.543zM98.38 10.403c-2.58 0-4.74-2.16-4.74-4.74 0-2.579 2.16-4.799 4.74-4.799 2.64 0 4.799 2.22 4.799 4.799 0 2.58-2.159 4.74-4.799 4.74zm-32.3 21.78c1.08 3.959 4.379 5.639 8.459 5.639 3 0 5.4-1.26 6.72-3l6.24 3.6c-2.82 4.08-7.32 6.42-13.08 6.42-10.079 0-16.439-6.9-16.439-15.839 0-8.94 6.42-15.84 15.84-15.84 8.879 0 15.178 7.02 15.178 15.84 0 1.139-.119 2.16-.299 3.18H66.08zm7.74-12.06c-4.141 0-6.96 2.22-7.86 6.06h15.299c-.96-4.32-4.2-6.06-7.439-6.06zM37.859 44.002l-7.92-27.719-7.86 27.719h-9.42L.9 2.004h8.7l8.039 31.139 8.76-31.139h7.08l8.819 31.139 8.04-31.139h8.7l-11.76 41.998h-9.419zm64.42 0H94.54V14.003h7.739v29.999zm241.985-8h-3.612v-14h3.612v14z" opacity=".302"/>
</svg>
