<svg xmlns="http://www.w3.org/2000/svg" width="133.593" height="27.969" viewBox="0 0 133.593 27.969">
  <defs>
    <style>
      .cls-1 {
        fill: #073c77;
        fill-rule: evenodd;
      }
    </style>
  </defs>
  <path id="_-e-Weinberg" data-name="-e-Weinberg" class="cls-1" d="M332.33,50.5h4.71l3.93-13.859L344.929,50.5h4.71l5.88-21h-4.35l-4.02,15.569L342.739,29.5H339.2l-4.38,15.569L330.8,29.5h-4.35Zm26.71-5.91h11.309A8.845,8.845,0,0,0,370.5,43a7.757,7.757,0,1,0-15.51,0c0,4.47,3.18,7.92,8.22,7.92a7.589,7.589,0,0,0,6.539-3.21l-3.119-1.8a4.16,4.16,0,0,1-3.36,1.5C361.23,47.411,359.58,46.571,359.04,44.591Zm-0.06-3a3.741,3.741,0,0,1,3.93-3.03,3.641,3.641,0,0,1,3.72,3.03h-7.65ZM375.19,33.7a2.4,2.4,0,0,0,2.4-2.37,2.385,2.385,0,1,0-4.77,0A2.4,2.4,0,0,0,375.19,33.7Zm-1.92,16.8h3.87v-15h-3.87v15Zm15.84-15.419a5.1,5.1,0,0,0-4.47,2.1V35.5h-3.87v15h3.87V42.4c0-2.61,1.41-3.72,3.3-3.72a2.792,2.792,0,0,1,2.97,3.09V50.5h3.869v-9.21C394.779,37.3,392.29,35.082,389.11,35.082Zm17.89,0a5.828,5.828,0,0,0-4.86,2.19V29.5h-3.87v21h3.87v-1.77a5.828,5.828,0,0,0,4.86,2.19c4.02,0,7.319-3.45,7.319-7.92S411.02,35.082,407,35.082Zm-0.72,12.149A4.23,4.23,0,1,1,410.449,43,4.026,4.026,0,0,1,406.28,47.231Zm14.26-2.64h11.309A8.847,8.847,0,0,0,432,43a7.756,7.756,0,1,0-15.509,0c0,4.47,3.18,7.92,8.219,7.92a7.593,7.593,0,0,0,6.541-3.21l-3.12-1.8a4.161,4.161,0,0,1-3.36,1.5C422.73,47.411,421.08,46.571,420.54,44.591Zm-0.06-3a3.74,3.74,0,0,1,3.929-3.03,3.641,3.641,0,0,1,3.721,3.03h-7.65Zm18.16-3.51V35.5h-3.87v15h3.87v-7.17c0-3.15,2.55-4.05,4.56-3.81V35.2A4.617,4.617,0,0,0,438.64,38.081Zm17.619-2.58v1.86a5.729,5.729,0,0,0-4.8-2.28,7.683,7.683,0,0,0,0,15.359,5.73,5.73,0,0,0,4.8-2.28v1.62c0,2.37-1.5,3.69-3.93,3.69-2.309,0-3.3-.93-3.929-2.1l-3.3,1.89c1.32,2.43,3.9,3.66,7.109,3.66,3.961,0,7.831-2.22,7.831-7.14V35.5h-3.781Zm-4.2,11.37a4.1,4.1,0,1,1,4.2-4.11A4.011,4.011,0,0,1,452.06,46.871Z" transform="translate(-326.438 -28.938)"/>
</svg>
